<svg xmlns:x="http://ns.adobe.com/Extensibility/1.0/" xmlns:i="http://ns.adobe.com/AdobeIllustrator/10.0/" xmlns:graph="http://ns.adobe.com/Graphs/1.0/" xmlns="http://www.w3.org/2000/svg" xmlns:xlink="http://www.w3.org/1999/xlink" version="1.1" x="0px" y="0px" viewBox="0 0 100 125" style="enable-background:new 0 0 100 100;" xml:space="preserve">
    <switch>
        <g i:extraneous="self">
            <g opacity="0.5">
                <path d="M86.2,23.6L67.1,4.5c-1.3-1.3-3-2-4.8-2l-43.5,0c0,0,0,0,0,0c-1.8,0-3.6,0.7-4.9,2c-1.3,1.3-2,3-2,4.9v81.3     c0,3.8,3.1,6.9,6.9,6.9h62.6c3.8,0,6.9-3.1,6.9-6.9V28.5C88.2,26.6,87.5,24.9,86.2,23.6z M65.6,7.5l17.6,17.6H68.8     c-1.7,0-3.2-1.4-3.2-3.2V7.5z M85.1,90.6c0,2.1-1.7,3.8-3.8,3.8H18.7c-2.1,0-3.8-1.7-3.8-3.8V9.4c0-1,0.4-1.9,1.1-2.7     c0.7-0.7,1.7-1.1,2.7-1.1c0,0,0,0,0,0l43.5,0c0.1,0,0.2,0.1,0.3,0.1v16.2c0,3.5,2.8,6.3,6.3,6.3H85c0,0.1,0.1,0.2,0.1,0.3V90.6z"/>
                <path d="M67.4,36.5c-1.3-1.3-3.5-1.3-4.8,0L49.1,50.1L36.9,37.9c-1.3-1.3-3.7-1.3-5,0L26.7,43c-0.7,0.7-1,1.6-1,2.5     c0,1,0.4,1.8,1,2.5l12.2,12.2L25.3,73.8c-1.3,1.3-1.3,3.4,0,4.8l7.3,7.3c0.6,0.6,1.5,1,2.4,1c0.9,0,1.8-0.3,2.4-1L51,72.3     l10.9,10.9c0.5,0.5,1.2,0.9,1.9,1l6.1,1c0.2,0,0.4,0,0.6,0c0.9,0,1.8-0.4,2.5-1c0.8-0.8,1.2-2,1-3.1l-1-6.1l0,0     c-0.1-0.7-0.5-1.4-1-1.9L61.1,62.1l13.6-13.6c0.6-0.6,1-1.5,1-2.4c0-0.9-0.3-1.7-1-2.4L67.4,36.5z M28.9,45.9     c-0.1-0.1-0.1-0.2-0.1-0.3c0-0.1,0-0.2,0.1-0.3l5.1-5.1c0.1-0.1,0.2-0.1,0.3-0.1c0.1,0,0.2,0,0.3,0.1l3.1,3.1L32,48.9L28.9,45.9z      M35,83.7c0,0-0.1,0-0.2-0.1l-7.3-7.3c-0.1-0.1-0.1-0.2,0-0.4l2.7-2.7l2.6,2.6c0.3,0.3,0.7,0.5,1.1,0.5c0.4,0,0.8-0.2,1.1-0.5     c0.6-0.6,0.6-1.6,0-2.2l-2.6-2.6l3.8-3.8l2.6,2.6c0.3,0.3,0.7,0.5,1.1,0.5c0.4,0,0.8-0.2,1.1-0.5c0.6-0.6,0.6-1.6,0-2.2l-2.6-2.6     l2.7-2.7l7.6,7.6L35,83.7z M69.9,75.3c0.1,0.1,0.1,0.2,0.1,0.2l1,6.1c0,0.2-0.1,0.3-0.1,0.4c-0.1,0.1-0.2,0.2-0.4,0.1l-6.4-1.1     l-0.9-0.9l5.8-5.8L69.9,75.3z M66.7,72.1L61,77.9L34.2,51.1l5.8-5.8L66.7,72.1z M72.5,46.4L58.9,59.9l-7.6-7.6l2.8-2.8l2.6,2.6     c0.3,0.3,0.7,0.5,1.1,0.5c0.4,0,0.8-0.2,1.1-0.5c0.6-0.6,0.6-1.6,0-2.2l-2.6-2.6l3.8-3.8l2.6,2.6c0.3,0.3,0.7,0.5,1.1,0.5     s0.8-0.2,1.1-0.5c0.6-0.6,0.6-1.6,0-2.2l-2.6-2.6l2.6-2.6c0.1-0.1,0.1-0.1,0.2-0.1c0.1,0,0.1,0,0.2,0.1l7.3,7.3V46.4z"/>
            </g>
        </g>
    </switch>
</svg>