<svg width="20" height="20" viewBox="0 0 20 20" fill="none" xmlns="http://www.w3.org/2000/svg">
<path d="M14.1667 10.833L10 14.9997L5.83333 10.833H8.33333V7.49967H11.6667V10.833H14.1667ZM16.125 8.35801C15.5583 5.49134 13.0333 3.33301 10 3.33301C7.59167 3.33301 5.5 4.69967 4.45833 6.69134C1.95 6.96634 0 9.08301 0 11.6663C0 12.9924 0.526784 14.2642 1.46447 15.2019C2.40215 16.1396 3.67392 16.6663 5 16.6663H15.8333C16.3805 16.6663 16.9223 16.5586 17.4278 16.3492C17.9334 16.1398 18.3927 15.8329 18.7796 15.446C19.1665 15.059 19.4734 14.5997 19.6828 14.0942C19.8922 13.5887 20 13.0468 20 12.4997C20 10.2997 18.2917 8.51634 16.125 8.35801Z" fill="#1875F0"/>
</svg>
