<svg width="14" height="14" viewBox="0 0 14 14" fill="none" xmlns="http://www.w3.org/2000/svg">
<g opacity="0.2" clip-path="url(#clip0)">
<path d="M9.149 6.475L8.519 7.119C8.015 7.623 7.7 8.05 7.7 9.1H6.3V8.75C6.3 7.973 6.615 7.273 7.119 6.769L7.987 5.887C8.246 5.635 8.4 5.285 8.4 4.9C8.4 4.123 7.77 3.5 7 3.5C6.6287 3.5 6.2726 3.6475 6.01005 3.91005C5.7475 4.1726 5.6 4.5287 5.6 4.9H4.2C4.2 4.15739 4.495 3.4452 5.0201 2.9201C5.5452 2.395 6.25739 2.1 7 2.1C7.74261 2.1 8.4548 2.395 8.9799 2.9201C9.505 3.4452 9.8 4.15739 9.8 4.9C9.8 5.516 9.548 6.069 9.149 6.475ZM7.7 11.9H6.3V10.5H7.7V11.9ZM7 0C6.08075 0 5.17049 0.18106 4.32122 0.532843C3.47194 0.884626 2.70026 1.40024 2.05025 2.05025C0.737498 3.36301 0 5.14348 0 7C0 8.85651 0.737498 10.637 2.05025 11.9497C2.70026 12.5998 3.47194 13.1154 4.32122 13.4672C5.17049 13.8189 6.08075 14 7 14C8.85651 14 10.637 13.2625 11.9497 11.9497C13.2625 10.637 14 8.85651 14 7C14 3.129 10.85 0 7 0Z" fill="#666666"/>
</g>
<defs>
<clipPath id="clip0">
<rect width="14" height="14" fill="white"/>
</clipPath>
</defs>
</svg>
