<svg width="20" height="20" viewBox="0 0 20 20" fill="none" xmlns="http://www.w3.org/2000/svg">
<g opacity="1">
<path fill-rule="evenodd" clip-rule="evenodd" d="M13.7331 13.1204L16.8007 10.4366C17.0432 10.2244 17.0677 9.8559 16.8556 9.61344C16.8385 9.59393 16.8202 9.57558 16.8007 9.55852L13.7143 6.85823C13.4826 6.65546 13.1331 6.66776 12.9162 6.88632L12.9132 6.88932C12.709 7.09505 12.7103 7.42735 12.916 7.63154C12.9223 7.63776 12.9287 7.64382 12.9353 7.64971L14.9022 9.41421H7.08472C6.76256 9.41421 6.50139 9.67537 6.50139 9.99754C6.50139 10.3197 6.76256 10.5809 7.08472 10.5809H14.9022L12.9616 12.2621C12.7257 12.4665 12.7001 12.8235 12.9045 13.0594C12.9074 13.0627 12.9103 13.066 12.9132 13.0692L12.9171 13.0735C13.1308 13.3089 13.4938 13.3298 13.7331 13.1204ZM11.7535 5.91667C11.4312 5.91667 11.1699 5.6554 11.1699 5.3331V4.16667H4.75046C4.4283 4.16667 4.16713 4.42783 4.16713 4.75V15.25C4.16713 15.5722 4.4283 15.8333 4.75046 15.8333H11.1699V14.6669C11.1699 14.3446 11.4312 14.0833 11.7535 14.0833C12.0757 14.0833 12.337 14.3446 12.337 14.6669V15.8333C12.3333 16.4167 11.75 17 11.1699 17H4.16713C3.58357 17 3 16.4167 3 15.8333V4.16667C3 3.58333 3.58357 3 4.16713 3H11.1667C11.75 3 12.3333 3.59539 12.3333 4.16667L12.3358 5.3331C12.3365 5.65472 12.0763 5.91599 11.7547 5.91667C11.7543 5.91667 11.7539 5.91667 11.7535 5.91667Z" fill="#ffffff"/>
</g>
</svg>
