<svg width="32" height="32" viewBox="0 0 32 32" fill="none" xmlns="http://www.w3.org/2000/svg">
<path d="M5.33329 2.66666C4.62605 2.66666 3.94777 2.94761 3.44767 3.4477C2.94758 3.9478 2.66663 4.62608 2.66663 5.33332V22.6667L7.99996 17.3333H20C20.7072 17.3333 21.3855 17.0524 21.8856 16.5523C22.3857 16.0522 22.6666 15.3739 22.6666 14.6667V5.33332C22.6666 4.62608 22.3857 3.9478 21.8856 3.4477C21.3855 2.94761 20.7072 2.66666 20 2.66666H5.33329ZM5.33329 5.33332H20V14.6667H7.99996L5.33329 17.3333V5.33332ZM25.3333 7.99999V10.6667H26.6666V24L24 21.3333H10.6666V20H7.99996V21.3333C7.99996 22.0406 8.28091 22.7188 8.78101 23.2189C9.28111 23.719 9.95938 24 10.6666 24H24L29.3333 29.3333V10.6667C29.3333 9.95941 29.0523 9.28114 28.5522 8.78104C28.0521 8.28094 27.3739 7.99999 26.6666 7.99999H25.3333Z" fill="#999999"/>
</svg>
