<svg width="28" height="29" viewBox="0 0 28 29" fill="none" xmlns="http://www.w3.org/2000/svg">
<g opacity="0.8">
<path d="M19.8333 15.7161H8.16668V13.3828H19.8333V15.7161ZM14 2.88281C12.4679 2.88281 10.9508 3.18458 9.53537 3.77088C8.1199 4.35719 6.83378 5.21655 5.75043 6.2999C3.56251 8.48782 2.33334 11.4553 2.33334 14.5495C2.33334 17.6437 3.56251 20.6111 5.75043 22.7991C6.83378 23.8824 8.1199 24.7418 9.53537 25.3281C10.9508 25.9144 12.4679 26.2161 14 26.2161C17.0942 26.2161 20.0617 24.987 22.2496 22.7991C24.4375 20.6111 25.6667 17.6437 25.6667 14.5495C25.6667 13.0174 25.3649 11.5003 24.7786 10.0848C24.1923 8.66937 23.3329 7.38325 22.2496 6.2999C21.1662 5.21655 19.8801 4.35719 18.4646 3.77088C17.0492 3.18458 15.5321 2.88281 14 2.88281Z" fill="#4C4C4C"/>
</g>
</svg>
