<svg width="20" height="20" viewBox="0 0 20 20" fill="none" xmlns="http://www.w3.org/2000/svg">
<g opacity="0.7">
<path d="M14.1666 10.8327H5.83323V9.16602H14.1666V10.8327ZM9.9999 1.66602C8.90555 1.66602 7.82192 1.88156 6.81087 2.30035C5.79982 2.71914 4.88116 3.33297 4.10734 4.10679C2.54454 5.6696 1.66656 7.78921 1.66656 9.99935C1.66656 12.2095 2.54454 14.3291 4.10734 15.8919C4.88116 16.6657 5.79982 17.2796 6.81087 17.6983C7.82192 18.1171 8.90555 18.3327 9.9999 18.3327C12.21 18.3327 14.3297 17.4547 15.8925 15.8919C17.4553 14.3291 18.3332 12.2095 18.3332 9.99935C18.3332 8.905 18.1177 7.82137 17.6989 6.81032C17.2801 5.79927 16.6663 4.88061 15.8925 4.10679C15.1186 3.33297 14.2 2.71914 13.1889 2.30035C12.1779 1.88156 11.0942 1.66602 9.9999 1.66602Z" fill="#4C4C4C"/>
</g>
</svg>
