<svg width="24" height="24" viewBox="0 0 24 24" fill="none" xmlns="http://www.w3.org/2000/svg">
<path d="M4 2H20C20.5304 2 21.0391 2.21071 21.4142 2.58579C21.7893 2.96086 22 3.46957 22 4V16C22 16.5304 21.7893 17.0391 21.4142 17.4142C21.0391 17.7893 20.5304 18 20 18H16L12 22L8 18H4C3.46957 18 2.96086 17.7893 2.58579 17.4142C2.21071 17.0391 2 16.5304 2 16V4C2 3.46957 2.21071 2.96086 2.58579 2.58579C2.96086 2.21071 3.46957 2 4 2ZM18 14V12H12.5L10.5 14H18ZM6 14H8.5L15.35 7.12C15.55 6.93 15.55 6.61 15.35 6.41L13.59 4.65C13.39 4.45 13.07 4.45 12.88 4.65L6 11.53V14Z" fill="#1875F0"/>
</svg>
