<svg width="70" height="70" viewBox="0 0 70 70" fill="none" xmlns="http://www.w3.org/2000/svg">
<g opacity="0.5">
<path d="M35 58.3332C29.5852 58.3332 24.3921 56.1821 20.5632 52.3533C16.7344 48.5244 14.5833 43.3313 14.5833 37.9165C14.5833 32.5017 16.7344 27.3086 20.5632 23.4797C24.3921 19.6509 29.5852 17.4998 35 17.4998C40.4148 17.4998 45.6079 19.6509 49.4368 23.4797C53.2656 27.3086 55.4167 32.5017 55.4167 37.9165C55.4167 43.3313 53.2656 48.5244 49.4368 52.3533C45.6079 56.1821 40.4148 58.3332 35 58.3332ZM55.5042 21.554L59.6458 17.4123C58.3333 15.9248 57.0208 14.5832 55.5333 13.2998L51.3917 17.4998C46.8708 13.8248 41.1833 11.6665 35 11.6665C28.0381 11.6665 21.3613 14.4321 16.4384 19.355C11.5156 24.2778 8.75 30.9546 8.75 37.9165C8.75 44.8784 11.5156 51.5552 16.4384 56.4781C21.3613 61.4009 28.0381 64.1665 35 64.1665C49.5833 64.1665 61.25 52.4123 61.25 37.9165C61.25 31.7332 59.0917 26.0457 55.5042 21.554ZM32.0833 40.8332H37.9167V23.3332H32.0833V40.8332ZM43.75 2.9165H26.25V8.74984H43.75V2.9165Z" fill="#1875F0"/>
</g>
</svg>
