<svg width="96" height="119" viewBox="0 0 96 119" fill="none" xmlns="http://www.w3.org/2000/svg">
<g clip-path="url(#clip0)">
<g opacity="0.3">
<path d="M20.6304 41.2959H46.3037C46.9117 41.2959 47.4947 41.0542 47.9246 40.624C48.3545 40.1937 48.596 39.6102 48.596 39.0017C48.596 38.3933 48.3545 37.8097 47.9246 37.3795C47.4947 36.9492 46.9117 36.7075 46.3037 36.7075H20.6304C20.0224 36.7075 19.4394 36.9492 19.0095 37.3795C18.5796 37.8097 18.3381 38.3933 18.3381 39.0017C18.3381 39.6102 18.5796 40.1937 19.0095 40.624C19.4394 41.0542 20.0224 41.2959 20.6304 41.2959Z" fill="#1875F0"/>
<path d="M63.6332 50.4727H20.6304C20.0224 50.4727 19.4394 50.7144 19.0095 51.1446C18.5796 51.5749 18.3381 52.1584 18.3381 52.7669C18.3381 53.3753 18.5796 53.9589 19.0095 54.3891C19.4394 54.8193 20.0224 55.0611 20.6304 55.0611H63.6332C64.2412 55.0611 64.8242 54.8193 65.2541 54.3891C65.684 53.9589 65.9255 53.3753 65.9255 52.7669C65.9255 52.1584 65.684 51.5749 65.2541 51.1446C64.8242 50.7144 64.2412 50.4727 63.6332 50.4727Z" fill="#1875F0"/>
<path d="M20.6304 68.6885H46.3037C46.9117 68.6885 47.4947 68.4468 47.9246 68.0165C48.3545 67.5863 48.596 67.0027 48.596 66.3943C48.596 65.7858 48.3545 65.2023 47.9246 64.772C47.4947 64.3418 46.9117 64.1001 46.3037 64.1001H20.6304C20.0224 64.1001 19.4394 64.3418 19.0095 64.772C18.5796 65.2023 18.3381 65.7858 18.3381 66.3943C18.3381 67.0027 18.5796 67.5863 19.0095 68.0165C19.4394 68.4468 20.0224 68.6885 20.6304 68.6885Z" fill="#1875F0"/>
<path d="M20.6304 82.4077H56.5272C57.1352 82.4077 57.7182 82.166 58.1481 81.7358C58.578 81.3055 58.8195 80.722 58.8195 80.1135C58.8195 79.5051 58.578 78.9215 58.1481 78.4913C57.7182 78.0611 57.1352 77.8193 56.5272 77.8193H20.6304C20.0224 77.8193 19.4394 78.0611 19.0095 78.4913C18.5796 78.9215 18.3381 79.5051 18.3381 80.1135C18.3381 80.722 18.5796 81.3055 19.0095 81.7358C19.4394 82.166 20.0224 82.4077 20.6304 82.4077Z" fill="#1875F0"/>
<path d="M61.8911 91.5386H20.6304C20.0224 91.5386 19.4394 91.7803 19.0095 92.2105C18.5796 92.6408 18.3381 93.2243 18.3381 93.8328C18.3381 94.4412 18.5796 95.0248 19.0095 95.455C19.4394 95.8853 20.0224 96.127 20.6304 96.127H61.8911C62.4991 96.127 63.0821 95.8853 63.512 95.455C63.9419 95.0248 64.1834 94.4412 64.1834 93.8328C64.1834 93.2243 63.9419 92.6408 63.512 92.2105C63.0821 91.7803 62.4991 91.5386 61.8911 91.5386Z" fill="#1875F0"/>
<path d="M85.616 13.8812C84.2301 9.84683 81.623 6.34474 78.157 3.86148C74.691 1.37822 70.5382 0.0371181 66.2757 0.0245039C62.0132 0.0118897 57.8526 1.32839 54.372 3.79109C50.8914 6.25379 48.2636 9.74039 46.8539 13.7664H11.4613C8.42159 13.7664 5.50636 14.975 3.35694 17.1262C1.20753 19.2774 0 22.1951 0 25.2374L0 107.553C0 110.596 1.20753 113.513 3.35694 115.664C5.50636 117.816 8.42159 119.024 11.4613 119.024H84.5845C86.0896 119.024 87.58 118.727 88.9706 118.151C90.3611 117.575 91.6246 116.73 92.6889 115.664C93.7532 114.599 94.5974 113.335 95.1734 111.943C95.7494 110.551 96.0458 109.06 96.0458 107.553V25.2374C96.0289 22.3856 94.9512 19.6424 93.0229 17.5428C91.0946 15.4432 88.4539 14.1378 85.616 13.8812ZM66.2006 4.58965C69.3741 4.58965 72.4764 5.53152 75.1152 7.29614C77.7539 9.06077 79.8105 11.5689 81.025 14.5034C82.2395 17.4378 82.5572 20.6668 81.9381 23.7821C81.319 26.8973 79.7907 29.7588 77.5467 32.0047C75.3026 34.2507 72.4436 35.7802 69.331 36.3998C66.2184 37.0195 62.9921 36.7015 60.0601 35.486C57.1281 34.2705 54.6221 32.2121 52.8589 29.5711C51.0958 26.9302 50.1547 23.8253 50.1547 20.649C50.1547 16.3898 51.8453 12.3051 54.8544 9.29333C57.8636 6.28162 61.9449 4.58965 66.2006 4.58965ZM91.4155 107.553C91.4155 109.379 90.6909 111.129 89.4013 112.42C88.1117 113.711 86.3625 114.436 84.5387 114.436H11.4613C9.63748 114.436 7.88834 113.711 6.59869 112.42C5.30904 111.129 4.58453 109.379 4.58453 107.553V25.2374C4.58453 23.412 5.30904 21.6614 6.59869 20.3707C7.88834 19.08 9.63748 18.3548 11.4613 18.3548H45.8453C45.8453 19.1119 45.616 19.869 45.616 20.649C45.616 26.1252 47.7896 31.377 51.6585 35.2492C55.5275 39.1214 60.7749 41.2968 66.2464 41.2968C71.7179 41.2968 76.9653 39.1214 80.8343 35.2492C84.7032 31.377 86.8768 26.1252 86.8768 20.649C86.8498 19.9962 86.7886 19.3453 86.6934 18.699C88.0678 19.1528 89.2642 20.0292 90.112 21.2031C90.9598 22.3771 91.416 23.7889 91.4155 25.2374V107.553Z" fill="#1875F0"/>
<path d="M59.7363 27.1406C60.1633 27.5644 60.7396 27.8034 61.3409 27.8059C61.6426 27.8076 61.9416 27.7498 62.2209 27.6356C62.5002 27.5214 62.7542 27.3532 62.9684 27.1406L66.2005 23.8828L69.4555 27.1406C69.6693 27.353 69.9227 27.5212 70.2014 27.6355C70.48 27.7499 70.7785 27.8082 71.0797 27.8072C71.3809 27.8061 71.6789 27.7457 71.9568 27.6293C72.2346 27.513 72.4869 27.343 72.6991 27.1291C72.9113 26.9152 73.0794 26.6615 73.1936 26.3826C73.3079 26.1037 73.3662 25.805 73.3651 25.5036C73.3641 25.2021 73.3037 24.9039 73.1874 24.6258C73.0712 24.3477 72.9014 24.0952 72.6876 23.8828L69.4555 20.648L72.6876 17.4132C72.9025 17.1999 73.073 16.9462 73.1894 16.6666C73.3058 16.387 73.3657 16.0872 73.3657 15.7843C73.3657 15.4814 73.3058 15.1816 73.1894 14.902C73.073 14.6224 72.9025 14.3687 72.6876 14.1554C72.2581 13.7281 71.6772 13.4883 71.0716 13.4883C70.466 13.4883 69.885 13.7281 69.4555 14.1554L66.2005 17.4132L62.9684 14.1554C62.5389 13.7281 61.958 13.4883 61.3524 13.4883C60.7468 13.4883 60.1658 13.7281 59.7363 14.1554C59.5215 14.3687 59.351 14.6224 59.2346 14.902C59.1182 15.1816 59.0583 15.4814 59.0583 15.7843C59.0583 16.0872 59.1182 16.387 59.2346 16.6666C59.351 16.9462 59.5215 17.1999 59.7363 17.4132L62.9684 20.648L59.7363 23.8828C59.5215 24.0961 59.351 24.3498 59.2346 24.6294C59.1182 24.909 59.0583 25.2088 59.0583 25.5117C59.0583 25.8146 59.1182 26.1144 59.2346 26.394C59.351 26.6736 59.5215 26.9273 59.7363 27.1406Z" fill="#1875F0"/>
</g>
</g>
<defs>
<clipPath id="clip0">
<rect width="96" height="119" fill="white"/>
</clipPath>
</defs>
</svg>
