<svg width="56" height="70" viewBox="0 0 56 70" fill="none" xmlns="http://www.w3.org/2000/svg">
<g clip-path="url(#clip0)">
<path fill-rule="evenodd" clip-rule="evenodd" d="M11.9685 24.1913H26.8992C27.6365 24.1913 28.2325 23.5896 28.2325 22.8452C28.2325 22.1008 27.6365 21.499 26.8992 21.499H11.9685C11.2312 21.499 10.6352 22.1008 10.6352 22.8452C10.6352 23.5896 11.2312 24.1913 11.9685 24.1913Z" fill="#CCCCCC"/>
<path fill-rule="evenodd" clip-rule="evenodd" d="M37.0075 29.5527H11.9688C11.2315 29.5527 10.6355 30.1545 10.6355 30.8989C10.6355 31.6433 11.2315 32.245 11.9688 32.245H37.0075C37.7448 32.245 38.3408 31.6433 38.3408 30.8989C38.3408 30.1545 37.7448 29.5527 37.0075 29.5527Z" fill="#CCCCCC"/>
<path fill-rule="evenodd" clip-rule="evenodd" d="M11.9685 40.2978H26.8992C27.6365 40.2978 28.2325 39.696 28.2325 38.9516C28.2325 38.2072 27.6365 37.6055 26.8992 37.6055H11.9685C11.2312 37.6055 10.6352 38.2072 10.6352 38.9516C10.6352 39.696 11.2312 40.2978 11.9685 40.2978Z" fill="#CCCCCC"/>
<path fill-rule="evenodd" clip-rule="evenodd" d="M11.9685 48.3515H32.8832C33.6192 48.3515 34.2165 47.7498 34.2165 47.0053C34.2165 46.2609 33.6192 45.6592 32.8832 45.6592H11.9685C11.2312 45.6592 10.6352 46.2609 10.6352 47.0053C10.6352 47.7498 11.2312 48.3515 11.9685 48.3515Z" fill="#CCCCCC"/>
<path fill-rule="evenodd" clip-rule="evenodd" d="M35.9842 53.7119H11.9682C11.2322 53.7119 10.6348 54.3136 10.6348 55.0581C10.6348 55.8025 11.2322 56.4042 11.9682 56.4042H35.9842C36.7215 56.4042 37.3175 55.8025 37.3175 55.0581C37.3175 54.3136 36.7215 53.7119 35.9842 53.7119Z" fill="#CCCCCC"/>
<path fill-rule="evenodd" clip-rule="evenodd" d="M53.1782 63.1117C53.1782 65.3302 51.3902 67.134 49.1942 67.134H6.65024C4.45424 67.134 2.66624 65.3302 2.66624 63.1117V14.7915C2.66624 12.5731 4.45424 10.7692 6.65024 10.7692H26.6462C26.5956 11.2175 26.5116 11.655 26.5116 12.1154C26.5116 18.7963 31.8942 24.2308 38.5116 24.2308C45.1289 24.2308 50.5116 18.7963 50.5116 12.1154C50.5116 11.7263 50.4329 11.3588 50.3982 10.9779C52.0036 11.4962 53.1782 12.9998 53.1782 14.7915V63.1117ZM38.5116 2.69231C43.6569 2.69231 47.8449 6.92058 47.8449 12.1154C47.8449 17.3115 43.6569 21.5385 38.5116 21.5385C33.3662 21.5385 29.1782 17.3115 29.1782 12.1154C29.1782 6.92058 33.3662 2.69231 38.5116 2.69231ZM49.7942 8.13885C48.1529 3.41654 43.7422 0 38.5116 0C33.3049 0 28.9049 3.38692 27.2489 8.07692H6.65024C2.98357 8.07692 -0.000427246 11.0896 -0.000427246 14.7915V63.1117C-0.000427246 66.8137 2.98357 69.8263 6.65024 69.8263H49.1942C52.8622 69.8263 55.8449 66.8137 55.8449 63.1117V14.7915C55.8449 11.2983 53.1769 8.45115 49.7942 8.13885Z" fill="#CCCCCC"/>
<path fill-rule="evenodd" clip-rule="evenodd" d="M34.5116 13.4612H37.1782V16.1535C37.1782 16.898 37.7742 17.4997 38.5116 17.4997C39.2489 17.4997 39.8449 16.898 39.8449 16.1535V13.4612H42.5116C43.2489 13.4612 43.8449 12.8595 43.8449 12.1151C43.8449 11.3707 43.2489 10.7689 42.5116 10.7689H39.8449V8.07662C39.8449 7.3322 39.2489 6.73047 38.5116 6.73047C37.7742 6.73047 37.1782 7.3322 37.1782 8.07662V10.7689H34.5116C33.7742 10.7689 33.1782 11.3707 33.1782 12.1151C33.1782 12.8595 33.7742 13.4612 34.5116 13.4612Z" fill="#CCCCCC"/>
</g>
<defs>
<clipPath id="clip0">
<rect width="56" height="70" fill="white"/>
</clipPath>
</defs>
</svg>
