<svg width="73" height="80" viewBox="0 0 73 80" fill="none" xmlns="http://www.w3.org/2000/svg">
<g clip-path="url(#clip0)">
<path fill-rule="evenodd" clip-rule="evenodd" d="M11.0595 35.8469H24.856C25.5374 35.8469 26.0881 35.267 26.0881 34.5495C26.0881 33.8319 25.5374 33.252 24.856 33.252H11.0595C10.3781 33.252 9.82739 33.8319 9.82739 34.5495C9.82739 35.267 10.3781 35.8469 11.0595 35.8469Z" fill="#CCCCCC"/>
<path fill-rule="evenodd" clip-rule="evenodd" d="M34.1966 41.0142H11.0598C10.3784 41.0142 9.8277 41.5941 9.8277 42.3117C9.8277 43.0292 10.3784 43.6092 11.0598 43.6092H34.1966C34.8779 43.6092 35.4286 43.0292 35.4286 42.3117C35.4286 41.5941 34.8779 41.0142 34.1966 41.0142Z" fill="#CCCCCC"/>
<path fill-rule="evenodd" clip-rule="evenodd" d="M11.0595 51.3714H24.856C25.5374 51.3714 26.0881 50.7914 26.0881 50.0739C26.0881 49.3563 25.5374 48.7764 24.856 48.7764H11.0595C10.3781 48.7764 9.82739 49.3563 9.82739 50.0739C9.82739 50.7914 10.3781 51.3714 11.0595 51.3714Z" fill="#CCCCCC"/>
<path fill-rule="evenodd" clip-rule="evenodd" d="M11.0595 59.1336H30.3855C31.0656 59.1336 31.6176 58.5536 31.6176 57.8361C31.6176 57.1186 31.0656 56.5386 30.3855 56.5386H11.0595C10.3781 56.5386 9.82739 57.1186 9.82739 57.8361C9.82739 58.5536 10.3781 59.1336 11.0595 59.1336Z" fill="#CCCCCC"/>
<path fill-rule="evenodd" clip-rule="evenodd" d="M33.2509 64.3003H11.0591C10.379 64.3003 9.82703 64.8803 9.82703 65.5978C9.82703 66.3153 10.379 66.8953 11.0591 66.8953H33.2509C33.9323 66.8953 34.483 66.3153 34.483 65.5978C34.483 64.8803 33.9323 64.3003 33.2509 64.3003Z" fill="#CCCCCC"/>
<path fill-rule="evenodd" clip-rule="evenodd" d="M49.139 73.3604C49.139 75.4986 47.4868 77.2373 45.4576 77.2373H6.14508C4.11588 77.2373 2.46369 75.4986 2.46369 73.3604V26.7867C2.46369 24.6484 4.11588 22.9098 6.14508 22.9098H24.6223C24.5754 23.3418 24.4978 23.7635 24.4978 24.2073C24.4978 30.6467 29.4716 35.8847 35.5863 35.8847C41.701 35.8847 46.6749 30.6467 46.6749 24.2073C46.6749 23.8323 46.6022 23.4781 46.5701 23.1109C48.0535 23.6104 49.139 25.0597 49.139 26.7867V73.3604ZM35.5863 15.1248C40.3409 15.1248 44.2107 19.2002 44.2107 24.2073C44.2107 29.2156 40.3409 33.2897 35.5863 33.2897C30.8318 33.2897 26.9619 29.2156 26.9619 24.2073C26.9619 19.2002 30.8318 15.1248 35.5863 15.1248ZM46.012 20.3745C44.4953 15.8228 40.4197 12.5298 35.5863 12.5298C30.7752 12.5298 26.7094 15.7943 25.1791 20.3148H6.14508C2.75692 20.3148 -0.000427246 23.2186 -0.000427246 26.7867V73.3604C-0.000427246 76.9285 2.75692 79.8323 6.14508 79.8323H45.4576C48.847 79.8323 51.6031 76.9285 51.6031 73.3604V26.7867C51.6031 23.4197 49.1377 20.6755 46.012 20.3745Z" fill="#CCCCCC"/>
<path fill-rule="evenodd" clip-rule="evenodd" d="M31.8901 25.5051H34.3543V28.1001C34.3543 28.8176 34.905 29.3976 35.5863 29.3976C36.2676 29.3976 36.8184 28.8176 36.8184 28.1001V25.5051H39.2825C39.9638 25.5051 40.5145 24.9251 40.5145 24.2076C40.5145 23.4901 39.9638 22.9101 39.2825 22.9101H36.8184V20.3151C36.8184 19.5976 36.2676 19.0176 35.5863 19.0176C34.905 19.0176 34.3543 19.5976 34.3543 20.3151V22.9101H31.8901C31.2088 22.9101 30.6581 23.4901 30.6581 24.2076C30.6581 24.9251 31.2088 25.5051 31.8901 25.5051Z" fill="#CCCCCC"/>
</g>
<rect x="18.4807" y="5.7832" width="52.6705" height="64.5783" rx="6" fill="white"/>
<g clip-path="url(#clip1)">
<path fill-rule="evenodd" clip-rule="evenodd" d="M32.3132 23.3167H46.1098C46.7911 23.3167 47.3418 22.7367 47.3418 22.0192C47.3418 21.3017 46.7911 20.7217 46.1098 20.7217H32.3132C31.6318 20.7217 31.0811 21.3017 31.0811 22.0192C31.0811 22.7367 31.6318 23.3167 32.3132 23.3167Z" fill="#CCCCCC"/>
<path fill-rule="evenodd" clip-rule="evenodd" d="M55.4503 28.4839H32.3135C31.6322 28.4839 31.0814 29.0639 31.0814 29.7814C31.0814 30.4989 31.6322 31.0789 32.3135 31.0789H55.4503C56.1316 31.0789 56.6824 30.4989 56.6824 29.7814C56.6824 29.0639 56.1316 28.4839 55.4503 28.4839Z" fill="#CCCCCC"/>
<path fill-rule="evenodd" clip-rule="evenodd" d="M32.3132 38.8411H46.1098C46.7911 38.8411 47.3418 38.2611 47.3418 37.5436C47.3418 36.8261 46.7911 36.2461 46.1098 36.2461H32.3132C31.6318 36.2461 31.0811 36.8261 31.0811 37.5436C31.0811 38.2611 31.6318 38.8411 32.3132 38.8411Z" fill="#CCCCCC"/>
<path fill-rule="evenodd" clip-rule="evenodd" d="M32.3132 46.6033H51.6392C52.3193 46.6033 52.8713 46.0233 52.8713 45.3058C52.8713 44.5883 52.3193 44.0083 51.6392 44.0083H32.3132C31.6318 44.0083 31.0811 44.5883 31.0811 45.3058C31.0811 46.0233 31.6318 46.6033 32.3132 46.6033Z" fill="#CCCCCC"/>
<path fill-rule="evenodd" clip-rule="evenodd" d="M54.5046 51.77H32.3128C31.6327 51.77 31.0807 52.35 31.0807 53.0675C31.0807 53.785 31.6327 54.365 32.3128 54.365H54.5046C55.186 54.365 55.7367 53.785 55.7367 53.0675C55.7367 52.35 55.186 51.77 54.5046 51.77Z" fill="#CCCCCC"/>
<path fill-rule="evenodd" clip-rule="evenodd" d="M70.3927 60.8301C70.3927 62.9684 68.7405 64.707 66.7113 64.707H27.3988C25.3696 64.707 23.7174 62.9684 23.7174 60.8301V14.2564C23.7174 12.1181 25.3696 10.3795 27.3988 10.3795H45.876C45.8292 10.8116 45.7515 11.2332 45.7515 11.677C45.7515 18.1165 50.7254 23.3545 56.8401 23.3545C62.9548 23.3545 67.9286 18.1165 67.9286 11.677C67.9286 11.302 67.8559 10.9478 67.8239 10.5806C69.3073 11.0801 70.3927 12.5294 70.3927 14.2564V60.8301ZM56.8401 2.59451C61.5946 2.59451 65.4645 6.66995 65.4645 11.677C65.4645 16.6853 61.5946 20.7595 56.8401 20.7595C52.0856 20.7595 48.2157 16.6853 48.2157 11.677C48.2157 6.66995 52.0856 2.59451 56.8401 2.59451ZM67.2657 7.84418C65.7491 3.29256 61.6734 -0.000488281 56.8401 -0.000488281C52.0289 -0.000488281 47.9631 3.26402 46.4329 7.7845H27.3988C24.0106 7.7845 21.2533 10.6883 21.2533 14.2564V60.8301C21.2533 64.3982 24.0106 67.302 27.3988 67.302H66.7113C70.1007 67.302 72.8568 64.3982 72.8568 60.8301V14.2564C72.8568 10.8894 70.3915 8.1452 67.2657 7.84418Z" fill="#CCCCCC"/>
<path fill-rule="evenodd" clip-rule="evenodd" d="M53.1439 12.9748H55.608V15.5698C55.608 16.2873 56.1587 16.8673 56.84 16.8673C57.5214 16.8673 58.0721 16.2873 58.0721 15.5698V12.9748H60.5362C61.2175 12.9748 61.7683 12.3948 61.7683 11.6773C61.7683 10.9598 61.2175 10.3798 60.5362 10.3798H58.0721V7.7848C58.0721 7.06729 57.5214 6.4873 56.84 6.4873C56.1587 6.4873 55.608 7.06729 55.608 7.7848V10.3798H53.1439C52.4625 10.3798 51.9118 10.9598 51.9118 11.6773C51.9118 12.3948 52.4625 12.9748 53.1439 12.9748Z" fill="#CCCCCC"/>
</g>
<defs>
<clipPath id="clip0">
<rect width="51.7464" height="67.4699" fill="white" transform="translate(0 12.5303)"/>
</clipPath>
<clipPath id="clip1">
<rect width="51.7464" height="67.4699" fill="white" transform="translate(21.2537)"/>
</clipPath>
</defs>
</svg>
