<svg width="116" height="85" viewBox="0 0 116 85" fill="none" xmlns="http://www.w3.org/2000/svg">
<path opacity="0.5" fill-rule="evenodd" clip-rule="evenodd" d="M110.454 68.0567L94.7928 65.3661L94.1429 65.6744C88.6038 68.3241 82.3855 69.0563 76.3573 68.0181C88.896 51.3672 87.6369 27.6125 72.4827 12.4463C72.0593 12.0201 71.6018 11.6552 71.1625 11.2517C81.9009 7.29187 94.0749 9.7988 102.297 18.0223C111.149 26.8804 113.473 40.4237 108.081 51.7208L107.771 52.3713L110.454 68.0567ZM42.4597 80.4667C36.8211 80.4667 31.1666 79.186 26.1076 76.7697L24.8101 76.1464L23.3925 76.3912L5.54807 79.4489L8.60744 61.6012L8.84974 60.18L8.22926 58.8789C1.30663 44.3904 4.28674 27.0187 15.6388 15.6536C22.8037 8.48187 32.3283 4.53333 42.462 4.53333C52.5912 4.53333 62.118 8.48187 69.2807 15.6536C76.4456 22.8231 80.3927 32.3567 80.3927 42.5C80.3927 52.6388 76.4456 62.1747 69.2807 69.3441C62.118 76.5159 52.5912 80.4667 42.4597 80.4667ZM112.476 53.0128C118.292 40.1177 115.534 24.8563 105.499 14.8172C95.3906 4.69427 80.0734 2.02413 67.1498 7.9764C59.7856 2.68827 51.1351 0 42.462 0C31.5946 0 20.7271 4.148 12.4367 12.4463C-0.638595 25.534 -3.40357 45.0364 4.14407 60.8351L0 85L24.1556 80.8588C29.9279 83.6173 36.1938 85 42.4597 85C53.3272 85 64.1923 80.8497 72.4827 72.5492C72.6548 72.3792 72.7975 72.1911 72.9651 72.0188C80.4652 73.9273 88.4023 73.2541 95.4336 70.0763L116 73.6077L112.476 53.0128Z" fill="#1875F0"/>
</svg>
