<svg width="155" height="22" viewBox="0 0 155 22" fill="none" xmlns="http://www.w3.org/2000/svg">
<path fill-rule="evenodd" clip-rule="evenodd" d="M14.2183 12.191C13.9835 8.71919 12 5.51649 8.0671 5.51649C4.67201 5.51649 2.05008 8.38224 1.74812 12.191H14.2183ZM8.40311 22C3.89935 22 0 18.3931 0 13.0336V12.9664C0 7.97751 3.49574 4 8.1342 4C12.9414 4 16 7.97751 16 12.8986C16 13.3033 15.5969 13.6744 15.1933 13.6744H1.74812C2.05008 17.9547 5.10916 20.4494 8.4707 20.4494C10.9244 20.4494 12.6385 19.438 14.017 18.0898C14.1512 17.9547 14.3195 17.8543 14.5543 17.8543C14.9915 17.8543 15.3615 18.1912 15.3615 18.6291C15.3615 18.7973 15.2939 19.0002 15.0926 19.2025C13.4121 20.8877 11.4957 22 8.40311 22Z" fill="#2CCCD3"/>
<path fill-rule="evenodd" clip-rule="evenodd" d="M20 4.94413C20 4.48856 20.3213 4.13003 20.7714 4.13003C21.2211 4.13003 21.5749 4.45557 21.5749 4.94413V8.98259C22.989 5.7587 25.8501 4 28.1644 4C28.6466 4 29 4.39056 29 4.87911C29 5.33468 28.6782 5.72572 28.1644 5.7587C24.6927 6.08425 21.5749 8.72206 21.5749 14.0632V20.1859C21.5749 20.6419 21.2536 21 20.8035 21C20.3534 21 20 20.6745 20 20.1859V4.94413Z" fill="#808080"/>
<path fill-rule="evenodd" clip-rule="evenodd" d="M44.2183 12.191C43.9835 8.71919 42.0005 5.51649 38.0671 5.51649C34.6725 5.51649 32.0501 8.38224 31.7481 12.191H44.2183ZM38.4036 22C33.8993 22 30 18.3931 30 13.0336V12.9664C30 7.97752 33.4957 4 38.1347 4C42.9414 4 46 7.97752 46 12.8986C46 13.3033 45.5969 13.6744 45.1933 13.6744H31.7481C32.0501 17.9547 35.1092 20.4494 38.4707 20.4494C40.9244 20.4494 42.6385 19.438 44.017 18.0898C44.1517 17.9547 44.3195 17.8543 44.5548 17.8543C44.992 17.8543 45.3615 18.1912 45.3615 18.6291C45.3615 18.7973 45.2939 19.0002 45.0926 19.2025C43.4121 20.8877 41.4957 22 38.4036 22Z" fill="#808080"/>
<path fill-rule="evenodd" clip-rule="evenodd" d="M51 5.06644C51 4.61434 51.3202 4.25855 51.7689 4.25855C52.217 4.25855 52.5697 4.58161 52.5697 5.06644V7.45788C53.6588 5.51902 55.4853 4 58.4644 4C62.5975 4 65 6.84401 65 10.7867V20.1921C65 20.6769 64.6798 21 64.2311 21C63.7825 21 63.4303 20.6769 63.4303 20.1921V11.078C63.4303 7.68416 61.5399 5.45403 58.2401 5.45403C55.0367 5.45403 52.5697 7.91045 52.5697 11.3365V20.1921C52.5697 20.6769 52.2495 21 51.8008 21C51.3522 21 51 20.6769 51 20.1921V5.06644Z" fill="#808080"/>
<path fill-rule="evenodd" clip-rule="evenodd" d="M84.2804 13.0673V13C84.2804 8.85377 81.2959 5.55063 77.4676 5.55063C73.5417 5.55063 70.7191 8.88741 70.7191 12.9327V13C70.7191 17.1457 73.7041 20.4494 77.5324 20.4494C81.4583 20.4494 84.2804 17.1121 84.2804 13.0673ZM69 13.0673V13C69 8.17938 72.6012 4 77.5324 4C82.4312 4 86 8.11259 86 12.9327V13C86 17.8201 82.3988 22 77.4676 22C72.5683 22 69 17.8879 69 13.0673Z" fill="#808080"/>
<path fill-rule="evenodd" clip-rule="evenodd" d="M96.5317 22H96.4683C96.027 22 95.7754 21.7231 95.5858 21.2738L89.1258 5.38189C89.0629 5.20896 89 5.03654 89 4.86361C89 4.38034 89.3464 4 89.8192 4C90.2919 4 90.4815 4.31086 90.6388 4.69069L96.4998 19.8574L102.456 4.62172C102.582 4.27638 102.802 4 103.212 4C103.653 4 104 4.38034 104 4.86361C104 5.03654 103.968 5.13999 103.905 5.31292L97.4138 21.2738C97.2246 21.7231 96.9725 22 96.5317 22Z" fill="#808080"/>
<path fill-rule="evenodd" clip-rule="evenodd" d="M129.264 17.5106V6.79889H127.667C127.32 6.79889 127 6.4463 127 6.06124C127 5.67665 127.32 5.35607 127.667 5.35607H129.264V0.801669C129.264 0.352584 129.555 0 129.961 0C130.367 0 130.687 0.352584 130.687 0.801669V5.35607H135.332C135.68 5.35607 136 5.70866 136 6.09325C136 6.47831 135.68 6.79889 135.332 6.79889H130.687V17.3496C130.687 19.691 131.935 20.5247 133.648 20.5247C134.664 20.5247 135.129 20.2041 135.332 20.2041C135.651 20.2041 135.971 20.5247 135.971 20.9098C135.971 21.2303 135.796 21.4549 135.506 21.5829C134.926 21.8075 134.258 22 133.415 22C131.122 22 129.264 20.6212 129.264 17.5106Z" fill="#808080"/>
<path fill-rule="evenodd" clip-rule="evenodd" d="M153.331 12.1913C153.109 8.71932 151.25 5.51653 147.564 5.51653C144.38 5.51653 141.922 8.38236 141.638 12.1913H153.331ZM147.879 22C143.655 22 140 18.393 140 13.0339V12.9666C140 7.97762 143.277 4 147.626 4C152.132 4 155 7.97762 155 12.8988C155 13.3036 154.622 13.6746 154.244 13.6746H141.638C141.922 17.9551 144.79 20.4498 147.941 20.4498C150.242 20.4498 151.849 19.4385 153.141 18.0902C153.267 17.9551 153.424 17.8546 153.646 17.8546C154.055 17.8546 154.402 18.1916 154.402 18.6295C154.402 18.7977 154.339 19.0001 154.149 19.2029C152.574 20.8882 150.778 22 147.879 22Z" fill="#808080"/>
<path fill-rule="evenodd" clip-rule="evenodd" d="M120.45 13C120.146 13 119.9 13.2917 119.9 13.6517V20.6966H116.727V17.9223C116.727 17.5623 116.481 17.2706 116.177 17.2706H113.823C113.519 17.2706 113.273 17.5623 113.273 17.9223V20.6966H110.1V13.6517C110.1 13.2917 109.854 13 109.55 13C109.246 13 109 13.2917 109 13.6517V21.3483C109 21.7083 109.246 22 109.55 22H113.823C114.126 22 114.372 21.7083 114.372 21.3483V18.574H115.628V21.3483C115.628 21.7083 115.874 22 116.177 22H120.45C120.754 22 121 21.7083 121 21.3483V13.6517C121 13.2917 120.754 13 120.45 13Z" fill="#2CCCD3"/>
<path fill-rule="evenodd" clip-rule="evenodd" d="M124.815 13.8306L119.773 8.35884V6.03738C119.773 5.66039 119.494 5.35401 119.15 5.35401C118.806 5.35401 118.527 5.66039 118.527 6.03738V7.00696L115.938 4.19753C115.696 3.93416 115.304 3.93416 115.062 4.19753L106.185 13.8306C105.94 14.0961 105.938 14.5289 106.18 14.797C106.421 15.0652 106.815 15.0684 107.061 14.8023L115.5 5.64446L118.699 9.11603C118.703 9.12081 118.707 9.12558 118.712 9.13036L123.939 14.8023C124.061 14.934 124.219 14.9999 124.377 14.9999C124.538 14.9999 124.698 14.9319 124.82 14.797C125.062 14.5289 125.06 14.0961 124.815 13.8306Z" fill="#2CCCD3"/>
</svg>
