<svg width="74" height="83" viewBox="0 0 74 83" fill="none" xmlns="http://www.w3.org/2000/svg">
<g clip-path="url(#clip0)">
<path fill-rule="evenodd" clip-rule="evenodd" d="M66.4572 61.8646H56.2159V37.0787C56.2159 36.6187 56.0335 36.1795 55.7117 35.8562L38.1186 18.1824C37.7968 17.859 37.3597 17.6757 36.9019 17.6757H21.0315V7.38545C21.0315 5.22054 22.7851 3.45852 24.9414 3.45852H52.774V19.4014C52.774 20.3577 53.5433 21.1306 54.495 21.1306H70.3654V57.9376C70.3654 60.1008 68.6135 61.8646 66.4572 61.8646ZM38.6228 23.5791L50.3406 35.3495H38.6228V23.5791ZM52.774 75.6132C52.774 77.7781 51.0204 79.5418 48.8658 79.5418H7.34837C5.19377 79.5418 3.44186 77.7781 3.44186 75.6132V25.0593C3.44186 22.8943 5.19377 21.1341 7.34837 21.1341H35.181V37.0787C35.181 38.0349 35.9502 38.8079 36.9019 38.8079H52.774V75.6132ZM56.2159 5.90356L67.932 17.6723H56.2159V5.90356ZM73.3047 18.1789L55.7117 0.506829C55.3881 0.181746 54.951 0.000183105 54.495 0.000183105H24.9414C20.8886 0.000183105 17.5896 3.31327 17.5896 7.38545V17.6757H7.34837C3.2973 17.6757 0 20.9888 0 25.0593V75.6132C0 79.6871 3.2973 83.0002 7.34837 83.0002H48.8658C52.9186 83.0002 56.2159 79.6871 56.2159 75.6132V65.3229H66.4572C70.5099 65.3229 73.8073 62.0098 73.8073 57.9376V19.4014C73.8073 18.9432 73.6266 18.504 73.3047 18.1789Z" fill="#1875F0" fill-opacity="0.5"/>
</g>
<defs>
<clipPath id="clip0">
<rect width="74" height="83" fill="white"/>
</clipPath>
</defs>
</svg>
