<svg width="85" height="105" viewBox="0 0 85 105" fill="none" xmlns="http://www.w3.org/2000/svg">
<g opacity="0.5">
<path d="M55.9808 45H18.0192C16.8077 45 16 45.8 16 47C16 48.2 16.8077 49 18.0192 49H55.9808C57.1923 49 58 48.2 58 47C58 45.8 56.9904 45 55.9808 45Z" fill="#1875F0"/>
<path d="M18.0455 61H40.9545C42.1818 61 43 60.2 43 59C43 57.8 42.1818 57 40.9545 57H18.0455C16.8182 57 16 57.8 16 59C16 60.2 16.8182 61 18.0455 61Z" fill="#1875F0"/>
<path d="M18.0339 73H49.9661C51.1864 73 52 72.2 52 71C52 69.8 51.1864 69 49.9661 69H18.0339C16.8136 69 16 69.8 16 71C16 72.2 16.8136 73 18.0339 73Z" fill="#1875F0"/>
<path d="M54 81H18C16.8 81 16 81.8 16 83C16 84.2 16.8 85 18 85H54C55.2 85 56 84.2 56 83C56 81.8 55 81 54 81Z" fill="#1875F0"/>
<path d="M74.8568 12.3173H49.4988C48.4845 5.25 42.6014 0 35.2983 0H26.778C19.4749 0 13.5919 5.45192 12.5776 12.3173H10.1432C4.46301 12.3173 0 16.7596 0 22.4135V94.9038C0 100.558 4.46301 105 10.1432 105H74.8568C80.537 105 85 100.558 85 94.9038V22.4135C85 16.9615 80.3341 12.3173 74.8568 12.3173ZM16.2291 14.3365C16.2291 8.68269 20.895 4.03846 26.5752 4.03846H35.0955C40.1671 4.03846 44.4272 7.67308 45.2387 12.3173H40.9785V10.2981C40.9785 9.08654 40.1671 8.27885 38.9499 8.27885C37.7327 8.27885 36.9212 9.08654 36.9212 10.2981V36.3462L27.5895 27.0577C26.778 26.25 25.5609 26.25 24.7494 27.0577L16.2291 35.5385V14.3365ZM80.9427 94.9038C80.9427 98.1346 78.3055 100.962 74.8568 100.962H10.1432C6.89737 100.962 4.05728 98.3365 4.05728 94.9038V22.4135C4.05728 19.1827 6.69451 16.3558 10.1432 16.3558H12.1718V40.3846C12.1718 41.1923 12.5776 42 13.389 42.2019C14.2005 42.6058 15.0119 42.4039 15.6205 41.7981L26.1694 31.2981L37.5298 42.6058C37.9356 43.0096 38.3413 43.2115 38.9499 43.2115C39.1527 43.2115 39.5585 43.2115 39.7613 43.0096C40.5728 42.6058 40.9785 42 40.9785 41.1923V36.5481H65.3222C66.5394 36.5481 67.3508 35.7404 67.3508 34.5288C67.3508 33.3173 66.5394 32.5096 65.3222 32.5096H40.9785V16.3558H74.8568C78.1026 16.3558 80.9427 18.9808 80.9427 22.4135V94.9038Z" fill="#1875F0"/>
</g>
</svg>
