<svg width="70" height="70" viewBox="0 0 70 70" fill="none" xmlns="http://www.w3.org/2000/svg">
<g opacity="0.5">
<path d="M24.2666 64.0793C23.9458 63.9335 23.5666 63.4668 23.5083 63.146C23.4208 62.7085 23.3333 63.4668 25.2583 51.2168C27.0083 40.1335 26.9791 40.3085 27.2125 39.9877C27.5916 39.4918 27.5333 39.4918 31.9083 39.4627C35.7583 39.3752 36.575 39.3752 38.2958 39.1127C47.775 37.8002 53.6375 32.2293 55.6791 22.6043C55.7958 21.9627 55.9125 21.4085 55.9416 21.4085C55.9416 21.3793 56.1458 21.5252 56.3791 21.7002C59.3833 23.9752 60.4041 28.1752 59.2666 33.7752C57.925 40.4543 54.3666 44.8877 48.825 46.7835C46.4625 47.6002 44.4791 47.921 40.9791 48.0085C38.6458 48.1252 38.5875 48.1252 37.9166 48.5627C37.4208 49.0585 37.45 48.971 36.3125 56.0002C35.525 60.9585 35.2333 62.5627 35.1166 62.8543C34.9125 63.321 34.5041 63.7293 34.0375 63.9627L33.7166 64.1668H29.1666C25.4041 64.1668 24.4416 64.1668 24.2666 64.0793ZM11.1416 57.5752C10.5875 57.2835 10.2083 56.7877 10.2083 56.2043C10.2083 55.4168 17.8208 7.81683 18.025 7.29183C18.2875 6.76683 18.9583 6.21266 19.4833 6.0085L19.9208 5.8335H30.2166C41.6208 5.8335 41.1833 5.8335 43.75 6.41683C51.3916 8.021 54.8917 13.1252 53.5792 20.796C52.1208 29.3418 47.8041 34.4168 40.4541 36.2543C37.9166 36.8668 36.1375 37.0418 31.2958 37.0418C27.475 37.0418 27.1833 37.071 26.425 37.4793C25.6666 37.9168 25.0541 38.7043 24.7916 39.6668C24.675 39.871 24.0041 43.9543 23.2458 48.7085C22.4875 53.4627 21.875 57.4293 21.875 57.5168L21.7875 57.6918H16.5958C11.9875 57.6918 11.3458 57.6918 11.1416 57.5752Z" fill="#1875F0"/>
</g>
</svg>
