<svg width="70" height="70" viewBox="0 0 70 70" fill="none" xmlns="http://www.w3.org/2000/svg">
<g opacity="0.5">
<path d="M35 2.9165C20.4167 2.9165 8.75 14.5832 8.75 29.1665V49.5832C8.75 51.9038 9.67187 54.1294 11.3128 55.7704C12.9538 57.4113 15.1794 58.3332 17.5 58.3332H26.25V34.9998H14.5833V29.1665C14.5833 23.7517 16.7344 18.5586 20.5632 14.7297C24.3921 10.9009 29.5852 8.74984 35 8.74984C40.4148 8.74984 45.6079 10.9009 49.4368 14.7297C53.2656 18.5586 55.4167 23.7517 55.4167 29.1665V34.9998H43.75V58.3332H55.4167V61.2498H35V67.0832H52.5C54.8206 67.0832 57.0462 66.1613 58.6872 64.5204C60.3281 62.8794 61.25 60.6538 61.25 58.3332V29.1665C61.25 14.5832 49.4958 2.9165 35 2.9165Z" fill="#1875F0"/>
</g>
</svg>
