<svg width="110" height="110" viewBox="0 0 110 110" fill="none" xmlns="http://www.w3.org/2000/svg">
<g opacity="0.3" clip-path="url(#clip0)">
<path fill-rule="evenodd" clip-rule="evenodd" d="M91.0955 87.0817C81.9871 96.1902 69.8823 101.205 57.0027 101.205C44.1255 101.205 32.0184 96.1902 22.9123 87.0817C13.8086 77.9733 8.79402 65.8685 8.79402 52.9913C8.79402 40.1141 13.8086 28.0093 22.9123 18.9009C32.0184 9.79478 44.1255 4.78261 57.0027 4.78261C69.8823 4.78261 81.9871 9.79478 91.0955 18.9009C109.891 37.7013 109.891 68.2837 91.0955 87.0817ZM94.4768 15.5196C84.4692 5.51196 71.1592 0 57.0027 0C42.8486 0 29.541 5.51196 19.531 15.5196C9.52337 25.5296 4.01141 38.8348 4.01141 52.9913C4.01141 66.3444 8.9662 78.9035 17.9216 88.6911L0.699456 105.918C-0.233152 106.853 -0.233152 108.364 0.699456 109.299C1.16815 109.766 1.77793 110 2.39011 110C3.00228 110 3.61446 109.766 4.08076 109.299L21.3029 92.0724C31.0905 101.033 43.6521 105.987 57.0027 105.987C71.1592 105.987 84.4692 100.478 94.4768 90.463C115.14 69.7998 115.14 36.1828 94.4768 15.5196Z" fill="#1875F0"/>
<path fill-rule="evenodd" clip-rule="evenodd" d="M57.0032 12.2036C34.513 12.2036 16.2147 30.5019 16.2147 52.9921C16.2147 54.3121 17.286 55.3834 18.606 55.3834C19.9284 55.3834 20.9973 54.3121 20.9973 52.9921C20.9973 33.1371 37.1482 16.9862 57.0032 16.9862C58.3256 16.9862 59.3945 15.9173 59.3945 14.5949C59.3945 13.2725 58.3256 12.2036 57.0032 12.2036Z" fill="#1875F0"/>
</g>
<defs>
<clipPath id="clip0">
<rect width="110" height="110" fill="white"/>
</clipPath>
</defs>
</svg>
