<svg width="32" height="32" viewBox="0 0 32 32" fill="none" xmlns="http://www.w3.org/2000/svg">
<path d="M16 1.33334C9.33333 1.33334 4 6.66668 4 13.3333V22.6667C4 23.7275 4.42143 24.745 5.17157 25.4951C5.92172 26.2452 6.93913 26.6667 8 26.6667H12V16H6.66667V13.3333C6.66667 10.858 7.65 8.48402 9.40034 6.73368C11.1507 4.98334 13.5246 4.00001 16 4.00001C18.4754 4.00001 20.8493 4.98334 22.5997 6.73368C24.35 8.48402 25.3333 10.858 25.3333 13.3333V16H20V26.6667H25.3333V28H16V30.6667H24C25.0609 30.6667 26.0783 30.2452 26.8284 29.4951C27.5786 28.745 28 27.7275 28 26.6667V13.3333C28 6.66668 22.6267 1.33334 16 1.33334Z" fill="white"/>
</svg>
