<svg width="90" height="90" viewBox="0 0 90 90" fill="none" xmlns="http://www.w3.org/2000/svg">
<g clip-path="url(#clip0)">
<path fill-rule="evenodd" clip-rule="evenodd" d="M71.5344 84.9056C64.2988 84.9056 58.4094 79.0163 58.4094 71.7806C58.4094 64.545 64.2988 58.6556 71.5344 58.6556C78.7701 58.6556 84.6594 64.545 84.6594 71.7806C84.6594 79.0163 78.7701 84.9056 71.5344 84.9056ZM13.0663 75.8962C2.9413 73.575 3.60318 67.7775 3.82255 65.8744C5.08255 54.8456 14.4332 43.5713 25.7226 39.2175C29.3001 41.82 33.6501 43.3875 38.2963 43.3875C42.9501 43.3875 47.3057 41.8162 50.8851 39.2062C58.25 42.0563 65.0976 48.0788 69.1138 55.1512C60.9613 56.3381 54.6594 63.3038 54.6594 71.7806C54.6594 73.7494 55.0607 75.6094 55.6832 77.3662C41.5213 79.5638 27.0032 79.0856 13.0663 75.8962ZM38.2963 3.75C48.0238 3.75 56.2419 11.9681 56.2419 21.6937C56.2419 31.4212 48.0238 39.6375 38.2963 39.6375C28.5707 39.6375 20.3526 31.4212 20.3526 21.6937C20.3526 11.9681 28.5707 3.75 38.2963 3.75ZM73.3176 55.0875C69.3163 46.9987 62.1594 40.1194 54.0126 36.4481C57.6894 32.5406 59.9919 27.3356 59.9919 21.6937C59.9919 9.93563 50.0563 0 38.2963 0C26.5382 0 16.6026 9.93563 16.6026 21.6937C16.6026 27.3244 18.8957 32.5219 22.5613 36.4256C10.7169 41.7412 1.46193 53.5181 0.0969269 65.4488C-0.716823 72.5606 3.59193 77.5706 12.2301 79.5525C20.7819 81.5081 29.5513 82.5 38.2963 82.5C44.6582 82.5 51.0688 81.9525 57.3801 80.9044C60.3876 85.5563 65.5944 88.6556 71.5344 88.6556C80.8401 88.6556 88.4094 81.0863 88.4094 71.7806C88.4094 63.0863 81.7757 55.9912 73.3176 55.0875Z" fill="#CCCCCC"/>
<path fill-rule="evenodd" clip-rule="evenodd" d="M77.1588 69.9053H65.9088C64.8719 69.9053 64.0338 70.7434 64.0338 71.7803C64.0338 72.8171 64.8719 73.6553 65.9088 73.6553H77.1588C78.1956 73.6553 79.0338 72.8171 79.0338 71.7803C79.0338 70.7434 78.1956 69.9053 77.1588 69.9053Z" fill="#CCCCCC"/>
</g>
<defs>
<clipPath id="clip0">
<rect width="90" height="90" fill="white"/>
</clipPath>
</defs>
</svg>
