<svg width="99" height="111" viewBox="0 0 99 111" fill="none" xmlns="http://www.w3.org/2000/svg">
<g opacity="0.3">
<path fill-rule="evenodd" clip-rule="evenodd" d="M49.2291 106.21C18.0349 94.0228 -0.231725 61.3587 5.72669 28.1952L8.65525 11.9036C13.0274 13.2633 17.5583 13.9525 22.1515 13.9525H22.1538C31.2065 13.9525 39.9715 11.2838 47.507 6.24259L49.2291 5.08634L50.157 5.71072C61.7538 13.4738 76.6475 15.4903 89.8053 11.1173L92.8582 28.2807C98.7522 61.4281 80.4372 94.069 49.2291 106.21ZM97.3915 27.4667C103.721 63.063 83.8492 98.1113 50.1432 110.807C49.8554 110.916 49.5215 110.98 49.1877 110.98C48.9206 110.98 48.6536 110.939 48.4187 110.849C14.6482 98.1298 -5.21166 63.0214 1.19572 27.3719L4.59856 8.43947C4.72058 7.77116 5.12809 7.18841 5.71288 6.84847C6.29767 6.50622 7.00218 6.44147 7.64223 6.67272L8.25695 6.89472C12.7281 8.50653 17.4041 9.32747 22.1515 9.32747H22.1538C30.2948 9.32747 38.178 6.92941 44.9537 2.39459L47.9513 0.385031C48.7249 -0.128344 49.7333 -0.128344 50.5069 0.385031L52.7126 1.86272C63.8489 9.32053 78.3121 10.8422 90.7355 5.85641C91.3801 5.60203 92.1007 5.64828 92.7086 5.98128C93.3118 6.32122 93.7354 6.91322 93.8574 7.59772L97.3915 27.4667ZM69.9637 39.7345L38.5945 60.7413L28.95 51.0542C28.0498 50.15 26.5924 50.15 25.6922 51.0542C24.7943 51.9561 24.7943 53.4199 25.6922 54.3241L36.6743 65.3524C37.1187 65.7987 37.7081 66.03 38.3021 66.03C38.7441 66.03 39.1908 65.9028 39.5799 65.6415L72.5169 43.5825C73.576 42.8726 73.8615 41.4365 73.157 40.3751C72.4479 39.309 71.025 39.0246 69.9637 39.7345Z" fill="#1875F0"/>
</g>
</svg>
